<svg width="99" height="27" fill="none" xmlns="http://www.w3.org/2000/svg"><path d="M9.37 10.86c1.43 0 2.87.07 4.29 0A3.19 3.19 0 0017 7.48c0-1.94-1.15-3.18-3.23-3.4-.2-.015-.4-.015-.6 0H5.39c-.56 0-.79.26-.78.83v5.23c0 .62.25.82.84.81h4l-.08-.09zm.36 11.75c1.46 0 2.91.06 4.36 0 3.1-.15 4.39-1.65 4.08-4.68a3 3 0 00-2.3-2.93 6.24 6.24 0 00-1.71-.33c-2.95-.06-5.9-.07-8.85-.1-.54 0-.75.27-.75.8v6.37c0 .57.22.81.8.8h4.29l.08.07zm8.72-10.39c.07.11.08.14.1.15 4.15 1.81 4.4 6.29 3.27 9.37-.94 2.56-3 3.71-5.55 4.21-.965.188-1.947.282-2.93.28H1.25c-.88 0-.92 0-.92-.9V1.24c0-.87.05-.91.91-.91h12.42a7.83 7.83 0 015.69 2.12c2.69 2.59 2.44 7.81-.72 9.63l-.18.12m17.22-1.34h4.16c1.86-.12 3.1-1.08 3.36-2.61.39-2.31-.8-4-3.15-4.12C37.23 4 34.41 4 31.59 4c-.49 0-.71.25-.71.76v5.36c0 .55.22.76.76.75h4l.03-.01zM36 22.52h3.29a14.861 14.861 0 002.66-.31 2.88 2.88 0 002.38-2.51c.105-.75.105-1.51 0-2.26A2.85 2.85 0 0042.26 15a6.262 6.262 0 00-1.63-.35c-3-.06-6-.07-9-.11-.59 0-.8.3-.79.84v6.3c0 .59.24.84.85.83h4.29l.02.01zm8.77-10.29c.06.08.08.13.11.14 3.18 1.41 4.16 4.32 3.68 7.58-.52 3.58-2.93 5.72-6.84 6.11-1.34.14-2.68.14-4 .15H27.51c-.81 0-.87-.06-.87-.89V1.19c0-.8.07-.86.9-.86H40a7.93 7.93 0 015.6 2c2.81 2.58 2.57 7.93-.66 9.77 0 0-.06.06-.11.12m51.05 13.96a4.8 4.8 0 00-.93 0c-1.09.22-1.59-.4-2-1.26-2-3.86-4-7.717-6-11.57-.59-1.12-1.18-2.25-1.8-3.35-.14-.24-.43-.54-.65-.54-.22 0-.51.31-.64.55-2.26 4.25-4.49 8.52-6.73 12.79-.51 1-1 1.93-1.58 2.86a1.08 1.08 0 01-.75.49c-1.19.05-2.38 0-3.56 0-.63 0-.77-.22-.47-.79 1.32-2.48 2.66-5 4-7.43.94-1.75 1.86-3.51 2.8-5.26C78.75 10.32 80 8 81.32 5.58c.85-1.6 1.69-3.2 2.56-4.78.12-.23.38-.53.57-.52.19.01.43.31.56.54 1.68 3.086 3.347 6.183 5 9.29 1.66 3.09 3.28 6.19 4.93 9.28l3.16 5.9c.39.71.27.88-.56.89h-1.68M51.41.33c1.93-.59 2.7.52 3.48 2.06 2.35 4.67 4.84 9.27 7.29 13.89.205.296.447.566.72.8.281-.221.53-.48.74-.77 2.667-5.073 5.333-10.157 8-15.25a1.19 1.19 0 011.24-.75h3.29c.68 0 .77.17.45.76-4.38 8.2-8.767 16.4-13.16 24.6-.12.21-.39.51-.54.49a1 1 0 01-.6-.52c-4.347-8.113-8.697-16.243-13.05-24.39-.43-.79-.35-.92.53-.92h1.61" fill="#2EE5D8"/></svg>