<svg width="103" height="27" fill="none" xmlns="http://www.w3.org/2000/svg"><path d="M29.86 11.66a6.85 6.85 0 004-.88 2.68 2.68 0 001.42-2.7 2.27 2.27 0 00-2-2A12 12 0 0029.43 6c-.15 0-.26.06-.3.22-.35 1.57-.72 3.12-1 4.69-.09.47.18.79.72.77h1l.01-.02zm-1.16 3.86h-1.24c-.41 0-.44.1-.51.39-.41 1.83-.84 3.65-1.24 5.48-.18.79.13 1.16.93 1.17a16.05 16.05 0 003.1-.21 5.5 5.5 0 003.06-1.49c1.26-1.3 1.32-4.15-1.09-4.94a9.072 9.072 0 00-3-.39l-.01-.01zm6.46-2.04c3.61.71 5.35 4 4 7.55a7.759 7.759 0 01-4.7 4.47 19.63 19.63 0 01-8.08 1.12 19.682 19.682 0 01-3.38-.4c-2.5-.5-3.43-2.4-3-4.69.42-2.48 1-4.93 1.6-7.38.84-3.76 1.71-7.51 2.55-11.26.06-.29.12-.48.49-.53a46.47 46.47 0 018.5-.46 11.39 11.39 0 015.44 1.47c3.23 2 3.39 6 .36 8.41a8.898 8.898 0 01-3.09 1.51l-.62.18m38.05.91h.58a5.29 5.29 0 005.35-4.69 2.87 2.87 0 00-2.13-3.37 12.43 12.43 0 00-3.85-.13c-.24 0-.29.17-.34.39-.49 2.17-1 4.34-1.48 6.51a1.002 1.002 0 00.81 1.25c.35.06.7.05 1 .08l.06-.04zM73.65 2a19.72 19.72 0 016.09.65c2.57.82 4.34 2.39 4.69 5.2a8.5 8.5 0 01-1.16 5.46 10.59 10.59 0 01-7 4.95c-1.906.469-3.883.58-5.83.33-.49-.05-.63.12-.72.56-.31 1.51-.64 3-1 4.52a6.868 6.868 0 01-.34 1.06 2.87 2.87 0 01-2.84 2h-2.83c-.34 0-.45-.08-.37-.43.9-4 1.797-8.023 2.69-12.07.833-3.74 1.66-7.483 2.48-11.23.07-.31.18-.45.51-.5a29.36 29.36 0 015.63-.5zM60.49 20.43c-.34 1.43-.61 2.83-1 4.2a3 3 0 01-2.6 1.91 13.61 13.61 0 01-9.43-1 8.19 8.19 0 01-4.38-5.73 15.4 15.4 0 013.6-14.26 12.45 12.45 0 018.49-4 14.32 14.32 0 016.94 1.07 2.46 2.46 0 011.59 3.35c-.18.68-.38 1.35-.58 2.06a9.75 9.75 0 00-5.82-1.77 7.25 7.25 0 00-6.17 3.06 10.212 10.212 0 00-2 8.62 5.37 5.37 0 005.28 4.34 8.67 8.67 0 005.84-1.74 1.54 1.54 0 01.24-.08M9.94 4.25c.87.39 1.684.894 2.42 1.5A21.449 21.449 0 0117 10.41a5.26 5.26 0 01.12 6.13 18.836 18.836 0 01-4 4.17 32.272 32.272 0 01-5.06 3.45 5.001 5.001 0 01-7-1.76c-.6-.89-.6-.84.35-1.32a19 19 0 007.92-6.65 6.65 6.65 0 00.82-1.67 9.86 9.86 0 00.78-6 9.24 9.24 0 00-1-2.48" fill="#2EE5D8"/><path d="M9.94 4.25c.87.39 1.684.894 2.42 1.5A21.449 21.449 0 0117 10.41a5.26 5.26 0 01.12 6.13 18.836 18.836 0 01-4 4.17 32.272 32.272 0 01-5.06 3.45 5.001 5.001 0 01-7-1.76c-.6-.89-.6-.84.35-1.32a19 19 0 007.92-6.65 6.65 6.65 0 00.82-1.67 9.86 9.86 0 00.78-6 9.24 9.24 0 00-1-2.48" stroke="#fff" stroke-miterlimit="10"/><path d="M93.87 4.24A11 11 0 0196.6 6a22.167 22.167 0 014.29 4.31 5.3 5.3 0 01.23 6.18A20.18 20.18 0 0196.7 21a33.261 33.261 0 01-4.25 3c-3 1.75-5.9 1-7.76-2.1-.25-.41.06-.46.29-.57a22 22 0 004.91-3.05 14.299 14.299 0 004.26-5.42c.512-1.155.8-2.397.85-3.66a7.76 7.76 0 00-1.17-5" fill="#2EE5D8"/><path d="M93.87 4.24A11 11 0 0196.6 6a22.167 22.167 0 014.29 4.31 5.3 5.3 0 01.23 6.18A20.18 20.18 0 0196.7 21a33.261 33.261 0 01-4.25 3c-3 1.75-5.9 1-7.76-2.1-.25-.41.06-.46.29-.57a22 22 0 004.91-3.05 14.299 14.299 0 004.26-5.42c.512-1.155.8-2.397.85-3.66a7.76 7.76 0 00-1.17-5" stroke="#fff" stroke-miterlimit="10"/><path d="M93.83 4.27A7.59 7.59 0 0195 9.17a10 10 0 01-.89 3.57 19.92 19.92 0 00-6.46-4.58c-.38-.17-.43-.31-.23-.67a7.71 7.71 0 013.46-3.63 2.45 2.45 0 012.83.33l.13.09-.01-.01zM10 4.28a9.19 9.19 0 011 2.45 9.54 9.54 0 01-.78 6 20.72 20.72 0 00-6.4-4.5c-.46-.2-.47-.42-.25-.82a7.51 7.51 0 013.51-3.53 2.4 2.4 0 012.69.29c0 .13.05.25.23.17v-.06z" fill="#2EE5D8" stroke="#fff" stroke-miterlimit="10"/><path d="M93.83 4.27A7.59 7.59 0 0195 9.17a10 10 0 01-.89 3.57 19.92 19.92 0 00-6.46-4.58c-.38-.17-.43-.31-.23-.67a7.71 7.71 0 013.46-3.63 2.45 2.45 0 012.83.33l.13.09-.01-.01zM10 4.28a9.19 9.19 0 011 2.45 9.54 9.54 0 01-.78 6 20.72 20.72 0 00-6.4-4.5c-.46-.2-.47-.42-.25-.82a7.51 7.51 0 013.51-3.53 2.4 2.4 0 012.69.29c0 .13.05.25.23.17v-.06z" fill="#2EE5D8" stroke="#fff" stroke-miterlimit="10"/></svg>