<svg width="33" height="56" fill="none" xmlns="http://www.w3.org/2000/svg"><path d="M28.17 49.2c1-1.65 4-6.54 4-9.07v-9.92c0-3.24-1.82-4.4-3.38-4.4a3 3 0 00-1.85.66 3.25 3.25 0 00-3.11-2.72h-.13a3.18 3.18 0 00-2 .71 3.2 3.2 0 00-5.11-2.19c0-3.58-.06-7.8-.06-9a3.001 3.001 0 00-3.19-3 3.14 3.14 0 00-3.08 3.19v8.18c0 2.1 0 4.19.07 6.28v5.45l-.54-1.47a3.23 3.23 0 00-3-2.09c-.341.001-.68.062-1 .18a3.111 3.111 0 00-1.94 4c.39 1.12.79 2.21 1.16 3.21.2.58.42 1.15.63 1.72.57 1.56 1.17 3.17 1.7 4.77a16.658 16.658 0 003.77 5.47l-1.95 2a.8.8 0 00-.24.57v3.17a.8.8 0 00.81.8h19.86a.8.8 0 00.8-.8v-3.15a.83.83 0 00-.23-.57l-1.99-1.98zM9 43.26c-.73-2.19-1.56-4.35-2.35-6.53-.39-1.06-.78-2.12-1.15-3.19a1.5 1.5 0 011-2c.153-.057.316-.085.48-.08a1.64 1.64 0 011.51 1C9 34 9.49 35.5 10 37c.063.19.144.374.24.55a1 1 0 00.88.53h.16a.88.88 0 00.75-.85v-2.09l-.03-5.6-.09-7.87V13.5a1.52 1.52 0 011.47-1.58 1.45 1.45 0 011.59 1.4c0 1.57.05 8.68.08 12.27v4.78a1 1 0 001.01 1 .85.85 0 00.64-.29 1 1 0 00.28-.79v-5c0-1.46.75-2 1.59-2 .84 0 1.62.56 1.62 2 0 1.79 0 4.1.06 5.9a1 1 0 001 1.09 1 1 0 00.93-1.13v-4.12a1.589 1.589 0 011.57-1.62A1.64 1.64 0 0125.31 27c0 1.66 0 3.32.06 5 0 .69.39 1.12 1 1.12.58 0 1-.47 1-1.16v-2.88a1.51 1.51 0 011.45-1.65c1.6 0 1.78 1.95 1.78 2.79v9.93c0 2.32-3.85 8.32-3.85 8.32h-14S9.76 45.7 9 43.26zm19.78 10.83H10.61v-2l1.92-1.92h14.34l1.91 1.92v2zM4.72 13.4A1.28 1.28 0 004.1 12a1.2 1.2 0 00-.75-.26H1.76a1.29 1.29 0 00-1.28 1.29 1.32 1.32 0 001.24 1.33h1.79a1.35 1.35 0 001.21-.96zm16.81-.51a1.26 1.26 0 00.54 1.51 1 1 0 00.61.21h1.75a1.3 1.3 0 001.243-1.462A1.31 1.31 0 0024.37 12c-.57-.035-1.14-.035-1.71 0a1.25 1.25 0 00-1.13.89zm-8.86-8.03a1.19 1.19 0 001.38-.5c.17-.22.266-.49.27-.77V2.01A1.35 1.35 0 0012.97.7a1.27 1.27 0 00-1.28 1.2 10.58 10.58 0 000 1.78 1.37 1.37 0 00.98 1.18zm6.46 2.68a1.26 1.26 0 001.64-.07c.4-.38.79-.77 1.16-1.17a1.24 1.24 0 000-1.81 1.29 1.29 0 00-1.91 0c-.37.36-.75.73-1.11 1.11a1.26 1.26 0 00.22 1.94zM5.24 7.26a1.35 1.35 0 001.78.11 1.22 1.22 0 00.22-1.76c-.44-.53-1-1-1.37-1.41a1.37 1.37 0 00-1.86.16 1.29 1.29 0 00.07 1.73l1.16 1.17zM4.8 22.14a13.33 13.33 0 001.49-1.4 1.35 1.35 0 00-.22-1.81 1.31 1.31 0 00-1.78 0c-.42.39-.82.8-1.21 1.23a1.33 1.33 0 001.72 2v-.02z" fill="#2EE5D8"/></svg>