<svg width="108" height="20" fill="none" xmlns="http://www.w3.org/2000/svg"><path d="M15.69 9.3v-5c0-.18-.05-.23-.23-.2L5.58 5.88c-.17 0-.22.1-.22.26v10c0 .18.06.23.24.19l9.84-1.77c.19 0 .25-.12.25-.3v-5 .04zM.78 11.26V3.15A2.68 2.68 0 013.48.46H20c.31 0 .32 0 .32.31v16.34a2.68 2.68 0 01-1.55 2.58c-.334.16-.7.242-1.07.24H1.06c-.28 0-.28 0-.28-.3v-8.36m72.35.52a5.66 5.66 0 00-.26-1.88 2.29 2.29 0 00-2.7-1.56A2.35 2.35 0 0068.3 10a5.07 5.07 0 00.07 3.6A2.11 2.11 0 0070 15a2.31 2.31 0 002.84-1.46 4.05 4.05 0 00.3-1.74l-.01-.01zM68 7.87c.07 0 .09-.08.12-.13a3.46 3.46 0 014.42-1.32 4.5 4.5 0 012.83 3.16 6.359 6.359 0 01-.62 5.28 5.26 5.26 0 01-7.64 1.22 4.74 4.74 0 01-1.5-2.62 6.994 6.994 0 01-.12-1.46V3.67c0-.28 0-.28.28-.28h1.91c.34 0 .34 0 .34.33v3.91a.34.34 0 000 .22m32.89 3.26l1-1.33a26.502 26.502 0 012.32-2.64 2.509 2.509 0 011.79-.75h1.71c.03 0 0 .11-.09.15-1.43 1.45-2.77 3-4.07 4.56-.13.15-.12.24 0 .39l4.12 4.83c.22.26.22.3-.07.49A2.17 2.17 0 01106 17a3.191 3.191 0 01-1.56-1.07c-1.22-1.34-2.31-2.77-3.4-4.21l-.1-.12a.345.345 0 000 .22v4.88c0 .3 0 .3-.29.3h-2c-.28 0-.29 0-.29-.28v-13c0-.32 0-.32.33-.32h2c.22 0 .27.07.27.28v7.41M52 11.07h1.59a4 4 0 001.33-.23.84.84 0 00.57-.54 1.5 1.5 0 00-.64-1.68 2.63 2.63 0 00-2.3-.22 2.52 2.52 0 00-1.57 2.57c0 .12.07.15.18.15H52v-.05zm.33 1.78h-1.18c-.16 0-.21 0-.18.2a2.49 2.49 0 001.3 1.74 3.62 3.62 0 001.67.44 5.929 5.929 0 002.6-.45c.17-.07.23 0 .23.16v1.4a.36.36 0 01-.19.32c-.452.27-.957.437-1.48.49a7.15 7.15 0 01-3-.1 5.1 5.1 0 01-3.78-4.37A6.23 6.23 0 0149.54 8 5.06 5.06 0 0156 6.83a4 4 0 011.79 4 1.87 1.87 0 01-1.18 1.44 6.43 6.43 0 01-2 .45c-.8.06-1.61.09-2.33.08M82 12.3a8.7 8.7 0 00-1.11.05 2.87 2.87 0 00-1.15.29 1.17 1.17 0 00-.64 1.12 1.199 1.199 0 00.65 1.14 2.83 2.83 0 001.85.27A1.39 1.39 0 0082.89 14c.06-.525.06-1.055 0-1.58 0-.12-.08-.14-.17-.14H82v.02zm3.38-.14c.039.61.039 1.22 0 1.83a3.47 3.47 0 01-2.84 3.06 6.07 6.07 0 01-4.38-.51 3 3 0 01-1.61-2.79 2.77 2.77 0 011.84-2.63 7.451 7.451 0 012.34-.53c.65-.06 1.31 0 2 0 .18 0 .27 0 .25-.25a6.609 6.609 0 00-.1-.76 1.56 1.56 0 00-1.46-1.24 6.47 6.47 0 00-3.53.42c-.27.11-.28.1-.28-.19V7.34a.38.38 0 01.19-.38 4.84 4.84 0 012-.74 6.74 6.74 0 012.61.11 3.66 3.66 0 012.86 3c.15.932.204 1.877.16 2.82M40 13.36v3.37c0 .3 0 .3-.31.3h-1.94c-.29 0-.29 0-.29-.29v-5.65a4.624 4.624 0 00-.13-1.17 2 2 0 00-2-1.6 2.06 2.06 0 00-2.25 2.14c-.06 1 0 2 0 3v3.24c0 .33 0 .33-.35.33h-2c-.18 0-.24-.06-.24-.24v-6.13a4.51 4.51 0 011.15-3.09 4.34 4.34 0 012.47-1.33 5.32 5.32 0 013.34.34 4.16 4.16 0 012.43 3.48c.13 1.17 0 2.35.05 3.3m49.56.27v3.1c0 .29 0 .3-.29.3h-2C87 17 87 17 87 16.77v-6.01a4.83 4.83 0 01.39-2 4.14 4.14 0 013-2.49 5.38 5.38 0 013.43.23 4.1 4.1 0 012.52 3.31c.065.366.095.738.09 1.11v5.79c0 .3 0 .3-.29.3h-1.93c-.31 0-.31 0-.31-.3v-5.84a3.791 3.791 0 00-.16-1.07 2 2 0 00-1.93-1.48 2.09 2.09 0 00-2.26 2.17.752.752 0 000 .15v3M41.9 8.67v-5c0-.3 0-.3.3-.3h1.89c.3 0 .31 0 .31.31V5.8c0 .2.07.26.27.26h3.13c.27 0 .28 0 .28.28V7a1.22 1.22 0 01-.83 1.19 2.18 2.18 0 01-.72.12h-1.86c-.21 0-.29 0-.28.26V13c.002.232.029.464.08.69A1.49 1.49 0 0046 14.93a4.93 4.93 0 001.87-.22c.14 0 .18 0 .18.14v1.26a.941.941 0 01-.46.67 2.1 2.1 0 01-1 .39 5.17 5.17 0 01-2.61-.31A3.2 3.2 0 0142 14.34c-.07-.393-.1-.791-.09-1.19V8.67M26.09 10.2V3.73c0-.32 0-.32.33-.32h1.95c.27 0 .28 0 .28.28v13.05c0 .29 0 .29-.29.29h-2c-.28 0-.3 0-.3-.3V10.2m33.09 3.15V10.1a4.719 4.719 0 01.39-1.85 3.45 3.45 0 012.77-2.08 3.66 3.66 0 011.74.08c.31.1.32.11.32.44v1.47c0 .17 0 .25-.23.22a3.1 3.1 0 00-.86 0 1.7 1.7 0 00-1.51 1.56c-.05.304-.07.612-.06.92v5.82c0 .35 0 .35-.36.35h-1.93c-.26 0-.27 0-.27-.27v-3.41z" fill="#2EE5D8"/></svg>