<svg width="109" height="269" viewBox="0 0 109 269" fill="none" xmlns="http://www.w3.org/2000/svg">
<path d="M108.214 6.79378L106.413 5.00012L73.6117 5.00012L34.5605 60.5833L34.5605 36.6677L0.0413857 36.6677L-1.13075e-07 126.537L2.58686 129.114L35.1813 129.114L37.7889 126.537L37.8303 95.5083L40.3757 92.9106L68.4794 92.9106L71.087 95.5083L71.087 126.537L73.6738 129.114L106.413 129.114L109 126.537L109 57.7794L75.8882 57.7794L108.214 6.79378Z" fill="white" fill-opacity="0.15"/>
<path d="M42.4245 35.0389L63.2643 5.00002L2.58685 5.00003L0.0413806 7.57714L0.0413816 28.8125L42.4452 28.8125L42.4245 35.0389Z" fill="white" fill-opacity="0.15"/>
<path d="M108.948 48.9243L108.948 19.9164L90.5712 48.9243L108.948 48.9243Z" fill="white" fill-opacity="0.15"/>
<path d="M45.8702 168.851L63.1298 168.851L63.1298 100.114L45.8702 100.114L45.8702 168.851Z" fill="white" fill-opacity="0.15"/>
<path d="M-1.27278e-06 219.04L0 248.048L18.3978 219.04L-1.27278e-06 219.04Z" fill="white" fill-opacity="0.15"/>
<path d="M0.786406 262.171L2.58686 263.985L35.3883 263.985L74.4602 208.381L74.4602 232.297L108.959 232.297L109 142.428L106.413 139.851L73.8187 139.851L71.2111 142.428L71.1697 173.477L68.6243 176.054L40.5206 176.054L37.913 173.477L37.913 142.428L35.3262 139.851L2.58686 139.851L-5.33353e-06 142.428L-2.31669e-06 211.185L33.1118 211.185L0.786406 262.171Z" fill="white" fill-opacity="0.15"/>
<path d="M66.5755 233.926L45.7357 263.985L106.413 263.985L108.959 261.387L108.959 240.152L66.5548 240.152L66.5755 233.926Z" fill="white" fill-opacity="0.15"/>
</svg>
