<svg width="109" height="269" fill="none" xmlns="http://www.w3.org/2000/svg"><path d="M108.214 6.794L106.413 5H73.612L34.56 60.583V36.668H.04L0 126.537l2.587 2.577H35.18l2.608-2.577.041-31.029 2.546-2.597h28.103l2.608 2.597v31.029l2.587 2.577h32.739l2.587-2.577V57.779H75.888l32.326-50.985z" fill="#2EE2D8" fill-opacity=".1"/><path d="M42.425 35.039L63.264 5H2.586L.04 7.577v21.236h42.404l-.02 6.226zm66.523 13.885V19.916L90.571 48.924h18.377zM45.87 168.851h17.26v-68.737H45.87v68.737zM0 219.04v29.008l18.398-29.008H0z" fill="#2EE2D8" fill-opacity=".1"/><path d="M.786 262.171l1.8 1.814h32.802l39.072-55.604v23.916h34.499l.041-89.869-2.587-2.577H73.819l-2.608 2.577-.041 31.049-2.546 2.577H40.521l-2.608-2.577v-31.049l-2.587-2.577H2.586L0 142.428v68.757h33.112L.786 262.171z" fill="#2EE2D8" fill-opacity=".1"/><path d="M66.576 233.926l-20.84 30.059h60.677l2.546-2.598v-21.235H66.555l.02-6.226z" fill="#2EE2D8" fill-opacity=".1"/></svg>