<svg width="54" height="40" viewBox="0 0 54 40" fill="none" xmlns="http://www.w3.org/2000/svg">
<rect x="1" y="1" width="52" height="38" rx="3" fill="#172F4F"/>
<path d="M51.386 40H2.74177C2.56172 40 2.38884 39.9283 2.26024 39.8003L0.206369 37.7733C0.0776432 37.6437 0.00363146 37.4682 0 37.2841V2.74595C0.00363146 2.56181 0.0776432 2.38634 0.206369 2.25668L2.22093 0.199773C2.2858 0.135174 2.36262 0.0842658 2.44695 0.0499903C2.53128 0.0157148 2.62146 -0.00125047 2.71228 7.17447e-05H51.3565C51.5366 4.50766e-05 51.7094 0.0717426 51.838 0.199773L53.8035 2.25668C53.9295 2.38735 54 2.56301 54 2.74595V37.2541C54 37.4371 53.9295 37.6127 53.8035 37.7434L51.8675 39.7703C51.807 39.8401 51.733 39.8964 51.6502 39.9359C51.5674 39.9755 51.4775 39.9973 51.386 40V40ZM3.02675 38.6121H51.101L52.7323 36.9646V3.01554L51.1108 1.38799H3.02675L1.40528 3.03551V36.9845L3.02675 38.6121Z" fill="#172F4F"/>
<path d="M20.3948 30C20.2149 30 20.0423 29.9276 19.9138 29.7982L18.2061 28.0422C18.0775 27.9112 18.0036 27.7338 18 27.5477V12.4102C18.0007 12.3179 18.0193 12.2266 18.0547 12.1417C18.0901 12.0568 18.1416 11.98 18.2061 11.9158L19.8648 10.2002C19.9681 10.0967 20.1006 10.0294 20.2433 10.0076C20.3859 9.98589 20.5317 10.0109 20.6598 10.0791L35.6467 18.3038C35.7542 18.364 35.8438 18.453 35.906 18.5614C35.9682 18.6698 36.0007 18.7935 36 18.9194V21.1698C36.0008 21.2969 35.9674 21.4218 35.9032 21.5305C35.8391 21.6392 35.7469 21.7274 35.6368 21.7854L20.7088 29.8991C20.6133 29.9577 20.5057 29.9922 20.3948 30V30ZM19.3642 27.2551L20.5125 28.4358L34.6456 20.8166V19.3634L20.4635 11.5827L19.3642 12.7433V27.2551Z" fill="#172F4F"/>
<path d="M35.33 19.1161C36.0396 19.4917 36.0396 20.5083 35.33 20.8839L20.4678 28.7495C19.8018 29.102 19 28.6191 19 27.8656L19 12.1344C19 11.3809 19.8018 10.898 20.4678 11.2505L35.33 19.1161Z" fill="#2EE5D8"/>
</svg>
