<svg width="56" height="41" viewBox="0 0 56 41" fill="none" xmlns="http://www.w3.org/2000/svg">
<path d="M53.08 40.23H3.57998C3.39677 40.23 3.22084 40.1582 3.08998 40.03L0.999977 38C0.868987 37.8701 0.793673 37.6944 0.789978 37.51V2.91999C0.793673 2.73558 0.868987 2.55985 0.999977 2.42999L3.04998 0.369994C3.11599 0.305299 3.19416 0.254314 3.27998 0.219987C3.36579 0.18566 3.45756 0.16867 3.54998 0.169994H53.05C53.2332 0.169967 53.4091 0.241772 53.54 0.369994L55.54 2.42999C55.6682 2.56086 55.74 2.73678 55.74 2.91999V37.48C55.74 37.6632 55.6682 37.8391 55.54 37.97L53.57 40C53.5084 40.0698 53.4331 40.1263 53.3488 40.1658C53.2646 40.2054 53.173 40.2272 53.08 40.23V40.23ZM3.86998 38.84H52.79L54.45 37.19V3.18999L52.8 1.55999H3.86998L2.21998 3.20999V37.21L3.86998 38.84Z" fill="#172F4F"/>
<path d="M21.6 30.1001C21.4168 30.1001 21.2408 30.0283 21.11 29.9001L19.37 28.1601C19.239 28.0302 19.1637 27.8545 19.16 27.6701V12.6701C19.1607 12.5786 19.1797 12.4881 19.2157 12.404C19.2518 12.3199 19.3042 12.2438 19.37 12.1801L21.06 10.4801C21.1653 10.3776 21.3002 10.3108 21.4456 10.2893C21.591 10.2678 21.7395 10.2925 21.87 10.3601L37.14 18.5101C37.2495 18.5697 37.3408 18.658 37.4042 18.7654C37.4676 18.8728 37.5007 18.9954 37.5 19.1201V21.3501C37.5009 21.4761 37.4667 21.5998 37.4014 21.7075C37.3361 21.8152 37.2421 21.9027 37.13 21.9601L21.92 30.0001C21.8227 30.0581 21.713 30.0924 21.6 30.1001V30.1001ZM20.55 27.3801L21.72 28.5501L36.12 21.0001V19.5601L21.67 11.8501L20.55 13.0001V27.3801Z" fill="#172F4F"/>
</svg>
