<svg width="103" height="24" fill="none" xmlns="http://www.w3.org/2000/svg"><path d="M77.45 8.67a5.06 5.06 0 002.78 1.89 3.32 3.32 0 00-2-2.65 3.14 3.14 0 00-2.62.23c1.36.48 1.82 3.25 4.7 2.73a5 5 0 01-2.82-2.2" fill="#2EE5D8"/><path d="M81.39 9.85a6.35 6.35 0 01-1.27-4.43 6.47 6.47 0 001.46 4.08 4.25 4.25 0 00-.09-4.32 4.13 4.13 0 00-2.93-1.74c1.06 1.54-.6 4.8 2.83 6.41" fill="#2EE5D8"/><path d="M85.45 4a8.44 8.44 0 00-1.63 5.39 5.6 5.6 0 003.25-4.61 5.17 5.17 0 00-1.74-4c-.07 2.42-4.33 4.59-2 8.87 0 0-.08-3.59 2.1-5.62" fill="#2EE5D8"/><path d="M92.14 6.56S89 7.23 86.25 11c1.43.2 4.83.34 7-2.4a6.74 6.74 0 001.3-5.54c-2 2.48-8.1 1.56-8.94 7.82 0 0 2.68-3.83 6.55-4.31" fill="#2EE5D8"/><path d="M87 13.86s5.78-2 10.22.4c0 0-3.78-1.63-9.61.23 1.34 1.28 4.81 4 9.19 2.73a8.905 8.905 0 005.65-4.85c-4 1.14-9.72-4.46-15.45 1.49M29 1.92a.16.16 0 00-.12-.1.37.37 0 00-.18 0 .19.19 0 00-.11.18 28.788 28.788 0 01-1.5 9.13l-.11.32a8.61 8.61 0 01-1.09 2.43c-.087.12-.188.231-.3.33-.09.103-.198.188-.32.25l-.16.06c-.2 0-.34-.06-.4-.33a1.701 1.701 0 010-.74c0-.33.1-.84.14-1.52l.23-2.4c.11-.81.19-1.62.25-2.43a10.18 10.18 0 00-.08-3.1 1.64 1.64 0 00-.93-1.24 1.41 1.41 0 00-.73 0 1.46 1.46 0 00-.62.36 2.2 2.2 0 00-.7 2.18c.047.187.097.287.15.3a.33.33 0 00.14 0 .15.15 0 00.13-.21l-.09-.3a1.53 1.53 0 01.16-1.16.932.932 0 01.56-.45.36.36 0 01.37.08c.08.074.153.155.22.24.104.136.175.293.21.46.06.255.088.518.08.78.01.03.01.06 0 .09a27.536 27.536 0 01-.3 4.49 14.774 14.774 0 00-.18 4.44c.08.346.282.652.57.86.227.13.494.172.75.12a1.17 1.17 0 00.34-.16 6 6 0 001.78-3.2l.1-.26A34.218 34.218 0 0029 2v-.08zm1.78 4.23a.42.42 0 00.2-.1.461.461 0 00.11-.47.39.39 0 00-.13-.21.36.36 0 00-.38-.09.51.51 0 00-.18.08.467.467 0 00-.09.12.41.41 0 00-.05.33.47.47 0 00.56.33" fill="#2EE5D8"/><path d="M34 3.23v-.06c0-.11.11-.25.18-.43.06-.149.137-.29.23-.42.07-.1.13-.16.18-.17a.23.23 0 01.14 0 .86.86 0 01.28.44.998.998 0 010 .4c-.009.316-.063.63-.16.93a5.33 5.33 0 01-1.7 2.59c.148-1.126.42-2.233.81-3.3l.04.02zm3.05-.42c.055-.198.125-.392.21-.58.16-.39.32-.6.46-.63a.15.15 0 01.14 0 .9.9 0 01.27.47 1.41 1.41 0 010 .51c.008.378-.036.754-.13 1.12a6 6 0 01-1.88 2.87c.195-1.28.53-2.534 1-3.74l-.07-.02zm2.64 3.24c.2-.43.35-.67.44-.7l.16-.06c.12 0 .19 0 .23.16v.08c-.07.256-.123.517-.16.78l-.14.28a4.079 4.079 0 01-.86 1.14v-.41c.036-.44.148-.869.33-1.27zm-10.2 3.41a.916.916 0 000 .15 1 1 0 00.6.73.897.897 0 00.39 0c.304-.049.586-.188.81-.4.28-.386.519-.802.71-1.24l.16-.34v.15c.069.312.184.612.34.89a1.002 1.002 0 00.73.51 1.5 1.5 0 00.37 0c.5-.12.94-.65 1.32-1.57a3.71 3.71 0 00.13 1l.11.38a1.27 1.27 0 00.9.84c.145.03.295.03.44 0 .41-.1.79-.51 1.16-1.23.18-.36.37-.81.57-1.33a1 1 0 00.5.49.86.86 0 00.42 0 .77.77 0 00.42-.28c.206-.243.375-.516.5-.81l.2-.38.06.28c.12.493.37.763.75.81h.16a1.51 1.51 0 00.38-.16 2.4 2.4 0 001-1.26 9.816 9.816 0 00.7-2.17v-.06a.11.11 0 00-.07 0 .13.13 0 00-.07.06 8.365 8.365 0 01-.52 1.75 2.59 2.59 0 01-.72 1.14s-.08.07-.17.11a1.508 1.508 0 01-.3.1h-.11v-.05a1.214 1.214 0 010-.2v-.32c.043-.38.11-.758.2-1.13.157-.463.201-.956.13-1.44a.489.489 0 00-.64-.37.5.5 0 00-.37.35c0 .19-.09.39-.12.58a.88.88 0 00-.35-.34.79.79 0 00-.6-.14.91.91 0 00-.41.24c-.402.453-.699.99-.87 1.57a3.442 3.442 0 00-.18.95c-.01.096-.01.194 0 .29-.14.38-.26.67-.35.86a4.208 4.208 0 01-1 1.62.649.649 0 01-.3.17c-.26.06-.44-.09-.53-.47a3.763 3.763 0 01-.07-1A9.27 9.27 0 0136.1 7a5.88 5.88 0 002.23-3.35c.2-.647.24-1.333.12-2 0-.12-.07-.23-.1-.33-.18-.34-.36-.51-.55-.52a1.94 1.94 0 00-.41 0 1.15 1.15 0 00-.56.34 5.61 5.61 0 00-1 2.09l-.07.2a14.004 14.004 0 00-.77 4.33v.06A3.929 3.929 0 0134 9.4a.64.64 0 01-.33.2.31.31 0 01-.29-.12 1.136 1.136 0 01-.21-.43 2.549 2.549 0 010-.48v-.23c-.01-.487.01-.975.06-1.46a5.33 5.33 0 002-3c.172-.54.206-1.114.1-1.67a2.83 2.83 0 00-.13-.38c-.17-.28-.34-.41-.51-.4a2 2 0 00-.36 0 1.28 1.28 0 00-.56.32 5.211 5.211 0 00-.95 1.86c.01.06.01.12 0 .18a11.93 11.93 0 00-.54 2.29 8.179 8.179 0 00-.1 1.64.505.505 0 00-.05.13 6.649 6.649 0 01-.79 1.52l-.2.18a1.53 1.53 0 01-.4.21.52.52 0 01-.25 0 5.05 5.05 0 00.21-.89c.076-.338.17-.672.28-1 .106-.234.174-.484.2-.74v-.14a.569.569 0 00-.11-.22.41.41 0 00-.46-.17c-.26.073-.47.313-.63.72a4.31 4.31 0 00-.39 2.07M.25 11.31v8.33h6.19v-1.57H2.21v-6.76H.25zm13.33 5.55a2.39 2.39 0 01-.95.94 2.85 2.85 0 01-2.7 0 2.45 2.45 0 01-.95-.94 3 3 0 010-2.77 2.45 2.45 0 01.95-.94 2.85 2.85 0 012.7 0c.4.217.73.543.95.94a2.92 2.92 0 010 2.77zm.07-5.14a5.3 5.3 0 00-4.74 0 4.15 4.15 0 00-2.25 3.75 4.18 4.18 0 002.25 3.76 5.38 5.38 0 004.74 0 4.25 4.25 0 001.65-1.55 4.15 4.15 0 00.61-2.21 4.199 4.199 0 00-.61-2.21 4.3 4.3 0 00-1.65-1.54m9.88 5.48a1.87 1.87 0 00-.44-1.32 2.64 2.64 0 00-1.09-.72c-.517-.18-1.045-.33-1.58-.45a6.998 6.998 0 01-1.39-.41.68.68 0 01-.45-.64A.81.81 0 0119 13a2.31 2.31 0 011.22-.26 4.73 4.73 0 012.34.66l.6-1.47a4.601 4.601 0 00-1.35-.55 6.899 6.899 0 00-1.58-.19 4.94 4.94 0 00-2 .35 2.63 2.63 0 00-1.2.93 2.28 2.28 0 00-.4 1.32 2 2 0 00.44 1.33c.28.331.642.583 1.05.73.52.18 1.052.33 1.59.45.41.1.75.18 1 .26.221.068.428.176.61.32a.64.64 0 01.23.49.73.73 0 01-.4.65 2.31 2.31 0 01-1.23.25 4.898 4.898 0 01-1.5-.24 4.7 4.7 0 01-1.29-.63l-.66 1.45c.453.323.961.56 1.5.7.63.18 1.284.271 1.94.27a5 5 0 002-.35 2.66 2.66 0 001.21-.94c.266-.38.406-.835.4-1.3m9.25-1.83a2.08 2.08 0 01-1.34.37h-1.59v-2.89h1.59a2.08 2.08 0 011.34.37 1.488 1.488 0 010 2.15zm2 .53a2.83 2.83 0 00.45-1.6 2.87 2.87 0 00-.45-1.61 2.94 2.94 0 00-1.27-1 4.85 4.85 0 00-2-.36h-3.62v8.33h2v-2.3h1.7a4.84 4.84 0 002-.36 2.81 2.81 0 001.27-1m3.39.36l1.34-3.19 1.34 3.19h-2.68zm2.31-5.08h-1.93l-3.76 8.33h2l.75-1.78h3.92l.75 1.78h2l-3.73-8.33zm9.35 4.09a2 2 0 01-1.34.38H47v-2.9h1.6a2.1 2.1 0 011.34.37 1.49 1.49 0 010 2.15h-.04zm.7 1.6a2.87 2.87 0 001.28-1 2.81 2.81 0 00.46-1.6 2.87 2.87 0 00-.45-1.61 2.94 2.94 0 00-1.27-1 4.92 4.92 0 00-1.95-.36H45v8.33h2v-2.44h1.8l1.63 2.32h2.1L50.6 17zm9.47 0l-.76-1h-2.07l1.57 2a2.8 2.8 0 01-1 .2 2.85 2.85 0 01-1.81-.59 2.72 2.72 0 01-1-2.22 2.862 2.862 0 01.81-2.07 2.731 2.731 0 012-.81 2.69 2.69 0 012 .83 2.81 2.81 0 01.83 2 2.94 2.94 0 01-.57 1.66zm2.21-1.62a4.54 4.54 0 00-6.81-3.95 4.528 4.528 0 00-1 7.12 4.65 4.65 0 005.38.83l.76 1h2l-1.54-2a4.38 4.38 0 001.13-3m8.99-4.07h-1.93v4.59a2.47 2.47 0 01-.49 1.7 1.78 1.78 0 01-1.4.54c-1.25 0-1.88-.74-1.88-2.24v-4.59h-2V16a3.791 3.791 0 001 2.83 4.55 4.55 0 005.64 0 3.79 3.79 0 001-2.83l.06-4.69zm3.67 4.85h3.92v-1.5h-3.92v-1.81h4.44v-1.54h-6.39v8.33h6.55v-1.55h-4.6v-1.93zm10.81-1c-.517-.18-1.045-.33-1.58-.45a6.709 6.709 0 01-1.38-.41.679.679 0 01-.45-.64.81.81 0 01.39-.69 2.24 2.24 0 011.21-.26 4.73 4.73 0 012.34.66l.61-1.47a4.843 4.843 0 00-1.35-.55 7.066 7.066 0 00-1.59-.19 5.001 5.001 0 00-2 .35 2.74 2.74 0 00-1.2.93 2.36 2.36 0 00-.4 1.32 2 2 0 00.44 1.33c.285.33.65.58 1.06.73.517.18 1.045.33 1.58.45.42.1.75.18 1 .26.218.07.42.178.6.32a.621.621 0 01.24.49.75.75 0 01-.4.65c-.38.193-.805.28-1.23.25A4.897 4.897 0 0182.1 18a4.558 4.558 0 01-1.29-.63l-.67 1.45a4.51 4.51 0 001.51.7 6.92 6.92 0 001.93.27 4.998 4.998 0 002-.35 2.659 2.659 0 001.21-.93 2.28 2.28 0 00.41-1.31 1.91 1.91 0 00-.44-1.32 2.67 2.67 0 00-1.06-.72M2.61 21.33v1.96h1.45v-.32h-1.1v-.52h.95v-.31h-.95v-.49h1.06v-.32H2.61zm3.06 0v1.96h1.37v-.32H6.02v-1.64h-.35zm6.08.67a.35.35 0 01-.12.28.59.59 0 01-.36.1h-.41v-.75h.41a.53.53 0 01.36.1.321.321 0 01.12.27zm.12-.51a.91.91 0 00-.6-.18h-.76v2h.35v-.57h.41a.91.91 0 00.6-.18.69.69 0 000-1v-.07zm2.42.3l.32.71H14l.29-.71zm-.14-.46l-.91 2h.37l.22-.48h.92l.22.48h.38l-.91-2h-.29zm2.96.32h.41a.53.53 0 01.36.1.32.32 0 01.12.25.35.35 0 01-.12.28.53.53 0 01-.36.1h-.41v-.73zm1.11.78a.63.63 0 00.13-.41.649.649 0 00-.23-.51.91.91 0 00-.6-.18h-.76v2h.35v-.57h.52l.42.58h.4l-.45-.71a.63.63 0 00.25-.2m2.42-.64l.32.71h-.64l.32-.71zm-.14-.46l-.91 2H20l.22-.48h.92l.22.48h.38l-.91-2h-.3zm3.1-.62l-.53.47h.41l.63-.47h-.51zm-.14.62h-.35v1.96h.35v-1.96zm2.74.93a1.647 1.647 0 00-.33-.1l-.27-.08a.29.29 0 01-.13-.08.17.17 0 010-.12.2.2 0 01.09-.17.49.49 0 01.32-.08h.23c.081.027.158.064.23.11h.08l.12-.3h-.05a.803.803 0 00-.28-.13 1.266 1.266 0 00-.33 0c-.14-.002-.28.025-.41.08a.61.61 0 00-.26.21.469.469 0 00-.08.29.45.45 0 00.1.31.66.66 0 00.24.17l.34.1.26.07a.341.341 0 01.14.09.121.121 0 010 .11.2.2 0 01-.09.17.54.54 0 01-.32.08.807.807 0 01-.31-.06.568.568 0 01-.24-.14l-.08-.07-.14.29c.095.081.203.146.32.19.137.04.278.06.42.06a.99.99 0 00.41-.07.6.6 0 00.26-.2.53.53 0 00.09-.3.47.47 0 00-.11-.31.511.511 0 00-.24-.16m3.51.09a.64.64 0 01-.09.34.58.58 0 01-.25.24.75.75 0 01-.71 0 .62.62 0 01-.24-.24.641.641 0 01-.09-.34.7.7 0 01.09-.35.691.691 0 01.24-.24.86.86 0 01.36-.08.78.78 0 01.35.08.648.648 0 01.34.59zm-.16-.87a1.15 1.15 0 00-1.06 0 .92.92 0 00-.37.36 1 1 0 000 1 .84.84 0 00.37.35c.162.088.345.133.53.13.183.002.365-.04.53-.12a1 1 0 00.51-.87 1 1 0 00-.51-.87m5.44-.09l-.66 1.45-.65-1.45h-.38l.88 1.96h.3l.88-1.96H35zm1.74 0v1.96h1.45v-.32h-1.1v-.52h.95v-.31h-.95v-.49h1.06v-.32h-1.41zM41 22a.35.35 0 01-.12.28.55.55 0 01-.37.1h-.4v-.75h.4a.55.55 0 01.37.1.321.321 0 01.12.27zm.22.41a.69.69 0 00.13-.41.65.65 0 00-.23-.51.93.93 0 00-.6-.18h-.72v2h.35v-.57h.52l.41.58h.41l-.49-.69a.708.708 0 00.25-.2m3.28-.12a.64.64 0 01-.09.34.56.56 0 01-.25.23.791.791 0 01-.38.09h-.47v-1.32h.47c.13 0 .26.027.38.08a.698.698 0 01.25.23.68.68 0 01.09.35zm-.16-.86a1.23 1.23 0 00-.55-.12H43v2h.83c.19.003.378-.038.55-.12a1 1 0 00.37-.35 1 1 0 000-1 1 1 0 00-.37-.35m2.08-.18v1.96h1.45v-.32h-1.1v-.52h.95v-.31h-.95v-.49h1.06v-.32h-1.41zM53 22.65a.64.64 0 01-.25.24.75.75 0 01-.71 0 .689.689 0 01-.24-.24.69.69 0 010-.68.56.56 0 01.24-.24.75.75 0 01.71 0A.53.53 0 0153 22a.69.69 0 010 .68v-.03zm.29.58a.35.35 0 01-.29.14.4.4 0 01-.24-.09.939.939 0 00.24-.18.87.87 0 00.29-.34c.071-.14.109-.293.11-.45a1 1 0 00-.14-.51 1.061 1.061 0 00-.37-.36 1.15 1.15 0 00-1.06 0 1 1 0 00-.38.36 1 1 0 00-.13.51 1 1 0 00.13.5c.086.148.21.269.36.35a1 1 0 00.48.14c.093.103.2.19.32.26a.73.73 0 00.35.09.67.67 0 00.28-.06.63.63 0 00.22-.18l-.19-.23.02.05zm3.02-.8a.62.62 0 01-.12.42.56.56 0 01-.72 0 .62.62 0 01-.12-.42v-1.1H55v1.11a.86.86 0 00.22.64.8.8 0 00.61.22.821.821 0 00.61-.22.9.9 0 00.22-.64v-1.11h-.35v1.1zm2.08-1.1v1.96h1.45v-.32h-1.1v-.52h.95v-.31h-.95v-.49h1.06v-.32h-1.41zm6.83 0l-.75 1.26-.75-1.26h-.28v1.96h.34v-1.23l.6 1h.18l.6-1.01v1.24h.34v-1.96h-.28zm2.03 0v1.96h1.44v-.32h-1.1v-.52h.95v-.31h-.95v-.49h1.07v-.32h-1.41zm4.29.67a.38.38 0 01-.11.28.58.58 0 01-.37.1h-.41v-.75h.41a.58.58 0 01.37.1.34.34 0 01.11.27zm.23.41a.69.69 0 00.12-.41.649.649 0 00-.23-.51.9.9 0 00-.6-.18h-.76v2h.35v-.57h.52l.42.58H72l-.47-.66a.818.818 0 00.25-.2m1.72-1.13v1.96h1.45v-.32h-1.1v-.52h.95v-.31h-.95v-.49h1.06v-.32H73.5zm3.57.4a.74.74 0 01.36-.09.65.65 0 01.48.19l.06.05.23-.22v-.06a.85.85 0 00-.32-.21c-.13-.052-.27-.08-.41-.08a1.19 1.19 0 00-.53.13 1 1 0 000 1.74c.301.125.64.125.94 0a.871.871 0 00.32-.22l-.2-.23-.06.06a.62.62 0 01-.48.19.742.742 0 01-.36-.09.669.669 0 01-.25-.92.53.53 0 01.25-.24m2.63-.4v1.96h1.45v-.32h-1.1v-.52h.95v-.31h-.95v-.49h1.06v-.32h-1.41zm4.06.93a1.76 1.76 0 00-.34-.1 1.641 1.641 0 01-.26-.08.319.319 0 01-.14-.08.16.16 0 010-.12.2.2 0 01.09-.17.44.44 0 01.31-.08h.24a.913.913 0 01.22.11h.08l.13-.3h-.06a.8.8 0 00-.28-.13 1.266 1.266 0 00-.33 0c-.14-.002-.28.025-.41.08a.53.53 0 00-.25.21.48.48 0 00-.09.29.45.45 0 00.11.31.528.528 0 00.24.17l.34.1.26.07c.05.018.096.049.13.09a.13.13 0 01.05.11.2.2 0 01-.09.17.57.57 0 01-.33.08.848.848 0 01-.31-.06.569.569 0 01-.24-.14l-.07-.07-.19.28c.092.086.2.15.32.19.133.04.271.06.41.06a.99.99 0 00.41-.07.64.64 0 00.27-.2.61.61 0 00.08-.3.46.46 0 00-.1-.31.632.632 0 00-.24-.16" fill="#2EE5D8"/></svg>