<svg width="105" height="46" fill="none" xmlns="http://www.w3.org/2000/svg"><path d="M56.41 4.08c.18 1.15-.92 2.56-1.3 3a8.551 8.551 0 00-.22-2.93c.09.93-.022 1.868-.33 2.75a2.7 2.7 0 01-.89-3.37c.286-.596.459-1.24.51-1.9.43.25 2 1.13 2.23 2.5m-6-1.46a3.19 3.19 0 001 2.17 6.272 6.272 0 01.17-2.15 4.69 4.69 0 00.24 2 2 2 0 00.65-2.47 3.88 3.88 0 01-.37-1.4c-.32.18-1.48.83-1.64 1.84m-7.27 4.49a3.32 3.32 0 002.42.35 6.58 6.58 0 01-1.8-1.32 4.73 4.73 0 001.9.88 2 2 0 00-1.81-1.91 4.1 4.1 0 01-1.44-.43 3.19 3.19 0 00.73 2.43zm6.65-4.1a3 3 0 01-.33 2.19 5.778 5.778 0 00-.68-1.9c.229.599.325 1.24.28 1.88a1.87 1.87 0 01-1.21-2.07 3.56 3.56 0 000-1.36 2.87 2.87 0 011.94 1.26m-7.08 4.78c.86 0 1.71 1.07 1.94 1.4a6.24 6.24 0 00-2.16-.29 4.75 4.75 0 011.94.66 2 2 0 01-2.58.13 3.851 3.851 0 00-1.3-.67 3.12 3.12 0 012.16-1.23m-1 6.17c.85.15 1.57 1.27 1.75 1.62a6.51 6.51 0 00-2.11-.55 4.72 4.72 0 011.84.9 2 2 0 01-2.57-.2 3.82 3.82 0 00-1.21-.82 3.09 3.09 0 012.3-.95m1.79-3.32c.66.16 1.18 1.08 1.3 1.37a4.998 4.998 0 00-1.64-.54 3.68 3.68 0 011.42.8 1.61 1.61 0 01-2-.28 3.2 3.2 0 00-.91-.72 2.48 2.48 0 011.87-.63m-2.44 1.48c.49.12.86.79 1 1a3.62 3.62 0 00-1.2-.4c.373.12.714.322 1 .59a1.17 1.17 0 01-1.48-.21 2.269 2.269 0 00-.67-.53 1.85 1.85 0 011.36-.46m5.6-8.29c.219.378.28.827.17 1.25-.17-.348-.4-.663-.68-.93.229.293.386.635.46 1a1.05 1.05 0 01-1-.94 2.05 2.05 0 00-.23-.74 1.67 1.67 0 011.27.38m4.95 4.17a2.68 2.68 0 00.23 2c.12-.591.343-1.157.66-1.67a3.752 3.752 0 00-.3 1.66 1.65 1.65 0 001.12-1.81 3.17 3.17 0 010-1.2 2.57 2.57 0 00-1.75 1.06m-5.02-.56c.13.6 1 1.07 1.21 1.18a4.282 4.282 0 01-.46-1.47c.132.473.368.91.69 1.28a1.43 1.43 0 00-.22-1.82 3 3 0 01-.63-.83 2.19 2.19 0 00-.59 1.66M63 8a1.67 1.67 0 000 1.24 3.24 3.24 0 01.56-1 2.45 2.45 0 00-.34 1 1 1 0 00.86-1c.002-.256.05-.51.14-.75A1.66 1.66 0 0063 8M50.12 6.82c.07.45.65.82.84.91a3.316 3.316 0 01-.29-1.09c.076.365.237.708.47 1a1.06 1.06 0 00-.1-1.34 2.107 2.107 0 01-.43-.63 1.629 1.629 0 00-.49 1.19m4.2 2.05a1.34 1.34 0 00-.2 1c.15-.26.343-.493.57-.69-.182.22-.315.475-.39.75a.84.84 0 00.81-.69c.03-.198.098-.388.2-.56a1.26 1.26 0 00-1 .23m9.3 1.31c-.45.11-.81.74-.89.94a3.153 3.153 0 011.12-.37 2.45 2.45 0 00-1 .54 1.1 1.1 0 001.39-.18 2.33 2.33 0 01.63-.49 1.712 1.712 0 00-1.28-.44m-15.18-.07a3.08 3.08 0 001.2 1.93 6.003 6.003 0 01-.13-2.07 4.43 4.43 0 00.53 1.89 1.91 1.91 0 00.28-2.44 3.591 3.591 0 01-.55-1.28c-.28.22-1.3 1-1.31 2m-2.67.5c.28.64 1.3 1 1.61 1.08a5.25 5.25 0 01-.83-1.57c.254.506.616.95 1.06 1.3a1.65 1.65 0 00-.64-2 3.25 3.25 0 01-.88-.81 2.54 2.54 0 00-.32 2m-1.66 3.46c0 .45.56.9.73 1a3.288 3.288 0 01-.15-1.13c.04.355.16.697.35 1a1.07 1.07 0 00.06-1.36 2.117 2.117 0 01-.35-.68 1.64 1.64 0 00-.64 1.13m-.63 4.12a1.71 1.71 0 00.64-1.08 3.368 3.368 0 01-1 .59 2.33 2.33 0 00.79-.72 1 1 0 00-1.26.48c-.124.226-.29.427-.49.59a1.65 1.65 0 001.3.14m12.49-8.97c.16.81 1.24 1.47 1.58 1.64a6.219 6.219 0 01-.57-2 4.51 4.51 0 00.89 1.74 1.91 1.91 0 00-.24-2.45 3.68 3.68 0 01-.8-1.13 2.91 2.91 0 00-.86 2.2m-1.03 3.22c.25.64 1.25 1 1.55 1.12a5 5 0 01-.76-1.57 3.81 3.81 0 001 1.31 1.62 1.62 0 00-.56-2 3.34 3.34 0 01-.84-.82 2.511 2.511 0 00-.38 2m2.28-8.36a3.05 3.05 0 00.24 2.26 5.72 5.72 0 01.78-1.92 4.39 4.39 0 00-.37 1.91 1.89 1.89 0 001.32-2.07A3.7 3.7 0 0159.23 3a3 3 0 00-2 1.21m2.44 1.43a3.93 3.93 0 00-.79 2.81 7.49 7.49 0 011.85-1.92 5.721 5.721 0 00-1.35 2.11 2.46 2.46 0 002.56-1.85 4.99 4.99 0 01.73-1.63c-.44-.07-2.06-.36-3 .48zm.24 3.96a3.12 3.12 0 00-1.15 2 6.333 6.333 0 011.8-1.14 4.691 4.691 0 00-1.45 1.39 2 2 0 002.34-1 3.87 3.87 0 01.88-1.13 3.06 3.06 0 00-2.42-.2m.73 5.27c-.9 0-1.84 1.06-2.08 1.39a6.633 6.633 0 012.27-.18 4.94 4.94 0 00-2.06.62 2.1 2.1 0 002.71.23c.42-.3.89-.521 1.39-.65a3.293 3.293 0 00-2.23-1.37m-3.13-1.42a2.74 2.74 0 00-.52 2A5.24 5.24 0 0158.26 14a4 4 0 00-.93 1.48 1.71 1.71 0 001.77-1.3c.095-.408.264-.794.5-1.14a2.66 2.66 0 00-2.09.35m4.12-.9c-.62.21-1 1.12-1.12 1.41a4.68 4.68 0 011.5-.65 3.5 3.5 0 00-1.27.88 1.52 1.52 0 001.9-.44 3 3 0 01.81-.75 2.36 2.36 0 00-1.82-.45zm2 1.09a2.07 2.07 0 00-.33 1.52 3.92 3.92 0 01.92-1.1 3.11 3.11 0 00-.66 1.17 1.32 1.32 0 001.31-1.07c.057-.312.172-.61.34-.88a1.999 1.999 0 00-1.58.34m-2.21 4.01a2.62 2.62 0 00-.73 1.77A5.41 5.41 0 0162 18.23a3.9 3.9 0 00-1 1.27 1.6 1.6 0 001.81-1c.134-.369.338-.708.6-1a2.51 2.51 0 00-2 .07m-9.36-6.01l-9.06 9.25 9.04-7.47 9.08 7.47-9.06-9.25zm-4 .88h-1.84v4.09l1.84-1.76v-2.33z" fill="#2EE5D8"/><path d="M51.93 16.21H50.5v1.43h1.43v-1.43zm0 1.76H50.5v1.43h1.43v-1.43zm1.75-1.76h-1.43v1.43h1.43v-1.43zm0 1.76h-1.43v1.43h1.43v-1.43zm11.24 5.31l-1.58-.21-1.57-.18c-1-.12-2.1-.22-3.14-.3a86.503 86.503 0 00-12.63 0c-1 .08-2.09.18-3.14.3-.53 0-1 .12-1.58.18l-1.57.21.79-.28.77-.23.77-.21.39-.09.38-.1c1-.24 2.09-.43 3.15-.58a44.4 44.4 0 0112.75 0c1.06.15 2.11.35 3.14.59l.39.09.39.1.77.2.76.23.76.25M20.56 39a1.69 1.69 0 01-1.73 1.45c-1.43 0-1.15-3.2 1.76-3.2 1.51 0 2.69.84 4.06.84.87 0 .83-.55.75-.62-.08-.07.87-.1.78.61-.06.39-.53.76-1.34.76a5.57 5.57 0 01-2.23-.64c-.5.88-2.51 4.23-2.55 4.89 0 .06-1 .07-.91 0C19.61 42.35 21.32 39 22 38a3.88 3.88 0 00-1.51-.35c-2.13 0-2.57 2.41-1.71 2.41a1.48 1.48 0 001.1-1.27.19.19 0 000-.12c.43 0 .69.09.69.39" fill="#2EE5D8"/><path d="M25.89 41.3c-.1.15-1.55 1.88-2.08 1.88-.3 0-.46-.23-.48-.58.087-.38.225-.747.41-1.09-.61.82-1.35 1.67-1.77 1.67-.42 0-.46-.23-.49-.58a9.338 9.338 0 011.56-3c.38 0 .51.22.45.31-.31.51-1.56 2.79-1.33 2.79.41 0 2.4-2.76 2.53-2.91.13-.15.15-.19.2-.19.38 0 .5.22.45.31-.31.51-1.55 2.76-1.32 2.76.41 0 1.65-1.41 1.78-1.57a.15.15 0 01.09.19m4.45-2.92a2.651 2.651 0 01-.63 1s-.33-.06-.34-.2a2.37 2.37 0 01.43-1 .92.92 0 01.54.21v-.01zM30 41.3c-.11.15-1.56 1.88-2.08 1.88-.3 0-.46-.23-.49-.58a9.55 9.55 0 011.56-3c.38 0 .51.22.46.31-.32.51-1.56 2.76-1.33 2.76.41 0 1.66-1.41 1.78-1.57a.15.15 0 01.1.19" fill="#2EE5D8"/><path d="M31.19 42.6c0-.54 1.24-2.39 1.12-2.46-.38-.2-2.1 2.21-2.54 2.85-.06.08-.08.14-.1.14-.02 0-.72 0-.57-.25.4-.81 1.48-3.26 1.8-3.27.32-.01.5.18.43.29l-.7 1.4c.95-1.34 1.57-1.75 2-1.75.05 0 .62.23.41.67a16.216 16.216 0 00-1.2 2.43c.46 0 1.8-1.5 1.83-1.54a.16.16 0 01.09.19c0 .09-1.53 1.85-2.06 1.85a.53.53 0 01-.54-.55" fill="#2EE5D8"/><path d="M35.42 42c-.37.53-.93 1.21-1.25 1.21a.66.66 0 01-.75-.57c0-.55.68-3.2.94-3.22.26-.02.54.23.52.31-.29 1-.94 3-.72 3 .22 0 .77-.6 1.13-1.07-.19-.69.79-2.14.93-2.14s.35.13.35.34c0 .21-.54 1.6-.73 1.6 0 0-.05.44.25.44s.89-.78.92-.78a.14.14 0 01.09.19s-.74.92-1.07.92a.73.73 0 01-.61-.26" fill="#2EE5D8"/><path d="M37.8 41.21c1.08-.21 1.46-1.46 1.16-1.46-.3 0-.85.72-1.16 1.46zm-1.07.91c.26-1.71 1.32-2.68 2.16-2.68.22 0 .54.14.5.69a1.54 1.54 0 01-1.6 1.26c-.26.71-.34 1.38 0 1.38.67 0 2-1.65 2-1.65a.15.15 0 01.09.19c-.07.13-1.5 1.85-2.45 1.85-.22 0-.82-.18-.69-1" fill="#2EE5D8"/><path d="M40.72 39.61c.32 0 .49.18.43.29l-.65 1.31a8.482 8.482 0 011.67-1.63c.17 0 .37.11.37.59 0 .14-1.11 1.48-.88 1.58.42.21 1.15-.64 1.19-.64.04 0 .06.14.06.21a1.79 1.79 0 01-1.19.75.68.68 0 01-.53-.42c-.1-.52.44-1.19.36-1.19A12.506 12.506 0 0040 42.27a7.776 7.776 0 01-.47.86c-.08.08-.71 0-.57-.25.41-.81 1.48-3.26 1.81-3.27" fill="#2EE5D8"/><path d="M43.73 40.37c.173.53.29 1.076.35 1.63a.82.82 0 01-.26.57 3.888 3.888 0 001.25-1.46c.06 0 .1.13.09.2-.01.07-1 1.84-2.11 1.84a1.17 1.17 0 01-1-.75s0-.12.11-.12.35.43.77.33a.69.69 0 00.5-.65 2.657 2.657 0 00-.22-.94l-.29.34s-.22-.07-.07-.23.22-.23.29-.32a2.32 2.32 0 01-.07-.28c-.15-.73.58-1.12 1-.86a.73.73 0 00-.26.7" fill="#2EE5D8"/><path d="M47.33 38.37a2.65 2.65 0 01-.63 1s-.32-.06-.34-.2a2.37 2.37 0 01.43-1 .92.92 0 01.54.21v-.01zM47 41.3c-.1.15-1.55 1.88-2.08 1.88-.3 0-.46-.23-.48-.58a9.151 9.151 0 011.56-3c.38 0 .5.22.45.31-.31.51-1.55 2.76-1.33 2.76.42 0 1.66-1.41 1.79-1.57a.15.15 0 01.09.19" fill="#2EE5D8"/><path d="M48.9 40.13a.91.91 0 00-.56.33c-.24.25-.432.542-.57.86a2.43 2.43 0 00-.25 1 .79.79 0 00.08.4.25.25 0 00.22.16c.23 0 .49-.19.77-.57a.29.29 0 010-.17.55.55 0 01.14-.37.461.461 0 01.31-.18c.131-.3.202-.623.21-.95 0-.37-.1-.55-.31-.55l-.04.04zm-1.09 3.09A1 1 0 0147 43a1.31 1.31 0 01-.26-.89A2.25 2.25 0 0147 41a2.55 2.55 0 01.79-.9 1.64 1.64 0 011-.35 1 1 0 01.82.31c.187.223.284.509.27.8a2.44 2.44 0 01-.51 1.41c.34.073.72-.237 1.14-.93.068.062.131.129.19.2a.06.06 0 010 .06l-.16.25c-.059.087-.122.17-.19.25a1.2 1.2 0 01-.21.23 1.45 1.45 0 01-.23.19.873.873 0 01-.27.14.823.823 0 01-.28 0 .872.872 0 01-.32-.06 1.85 1.85 0 01-1.33.66" fill="#2EE5D8"/><path d="M51.75 42.6c0-.54 1.24-2.39 1.12-2.46-.38-.2-2.1 2.21-2.54 2.85-.06.08-.08.14-.1.14-.02 0-.72 0-.57-.25.4-.81 1.48-3.26 1.8-3.27.32-.01.5.18.43.29l-.7 1.4c1-1.34 1.57-1.75 2-1.75.05 0 .62.23.41.67a16.196 16.196 0 00-1.2 2.43c.46 0 1.8-1.5 1.83-1.54a.16.16 0 01.09.19c0 .09-1.53 1.85-2.06 1.85a.53.53 0 01-.54-.55m10.18-4.86a.872.872 0 01-.17.35h-1c-.38.78-1.89 3.6-2.36 4.46.64 0 1.19.06 1.19.18a.761.761 0 01-.18.35c-.11 0-2.89.07-3 0-.11-.07.08-.39.19-.42.372-.078.75-.118 1.13-.12a38.984 38.984 0 012.3-4.41c-.43.024-.86.024-1.29 0-.1 0 .09-.39.2-.42.49-.17 3-.19 3 .06" fill="#2EE5D8"/><path d="M61.45 42.6c0-.54 1.24-2.39 1.11-2.46-.37-.2-2.09 2.21-2.53 2.85-.06.08-.09.14-.11.14-.02 0-.71 0-.57-.25.41-.81 1.48-3.26 1.81-3.27.33-.01.49.18.43.29l-.7 1.4c1-1.34 1.56-1.75 2-1.75.06 0 .63.23.41.67a15.942 15.942 0 00-1.19 2.43c.46 0 1.79-1.5 1.83-1.54a.16.16 0 01.09.19c0 .09-1.53 1.85-2.07 1.85a.53.53 0 01-.53-.55" fill="#2EE5D8"/><path d="M65.89 41.3c-.1.15-1.55 1.88-2.08 1.88-.3 0-.46-.23-.48-.58.427-1.145.956-2.25 1.58-3.3H63.8c-.14 0-.18-.23-.11-.23l1.4-.11c.14-.299.333-.57.57-.8.38 0 .51.23.45.31-.06.08-.14.23-.25.43l1.23-.09c.19 0 .09.45 0 .45h-1.43A19.2 19.2 0 0064 42.68c.42 0 1.66-1.41 1.79-1.57a.15.15 0 01.09.19" fill="#2EE5D8"/><path d="M66.59 41.21c1.07-.21 1.46-1.46 1.16-1.46-.3 0-.86.72-1.16 1.46zm-1.08.91c.27-1.71 1.33-2.68 2.16-2.68.22 0 .54.14.51.69a1.56 1.56 0 01-1.6 1.26h-.06c-.25.71-.34 1.38 0 1.38.67 0 2-1.65 2-1.65s.13.12.1.19-1.5 1.85-2.46 1.85c-.22 0-.82-.18-.69-1" fill="#2EE5D8"/><path d="M70.49 41.3c-.1.15-1.55 1.88-2.07 1.88-.31 0-.46-.23-.49-.58a25.29 25.29 0 012.56-4.87c.38 0 .51.23.45.31-.31.51-2.55 4.64-2.32 4.64.41 0 1.65-1.41 1.78-1.57a.142.142 0 01.088.075.141.141 0 01.002.115" fill="#2EE5D8"/><path d="M72.66 38.37a2.65 2.65 0 01-.63 1s-.32-.06-.34-.2a2.37 2.37 0 01.43-1 .92.92 0 01.54.21v-.01zm-.3 2.94c-.1.15-1.55 1.88-2.08 1.88-.3 0-.46-.23-.48-.58a9.153 9.153 0 011.56-3c.38 0 .5.22.45.31-.31.51-1.56 2.76-1.33 2.76.42 0 1.66-1.41 1.79-1.57a.15.15 0 01.09.19" fill="#2EE5D8"/><path d="M72.75 42.74c1 0 2.28-2.77 1.51-2.77-.77 0-2 2.77-1.51 2.77zm-.8-.47C72 41 73.33 39.44 74 39.44a.7.7 0 01.71.67c.009.08.009.16 0 .24.21-.46.38-.77.5-.77.34 0 .58.2.54.32-2 3-2.17 6.07-4.78 5.63a1.33 1.33 0 01-.92-.68c-.13-.55.3-.86.33-.76a1.39 1.39 0 002.35.3c.517-.697.943-1.456 1.27-2.26-.38.58-.83 1-1.26 1a.84.84 0 01-.76-.89m4.32-1.03c1.08-.21 1.46-1.46 1.16-1.46-.3 0-.85.72-1.16 1.46zm-1.07.91c.26-1.71 1.32-2.68 2.16-2.68.22 0 .54.14.5.69a1.54 1.54 0 01-1.6 1.26h-.05c-.26.71-.34 1.38 0 1.38.67 0 2-1.65 2-1.65a.15.15 0 01.09.19c-.07.13-1.5 1.85-2.45 1.85-.22 0-.82-.18-.69-1" fill="#2EE5D8"/><path d="M79.53 42.6c0-.54 1.24-2.39 1.11-2.46-.38-.2-2.1 2.21-2.54 2.85 0 .08-.08.14-.1.14-.02 0-.71 0-.57-.25.41-.81 1.48-3.26 1.8-3.27.32-.01.5.18.44.29L79 41.3c.94-1.34 1.56-1.75 2-1.75.05 0 .62.23.41.67a15.923 15.923 0 00-1.19 2.43c.46 0 1.79-1.5 1.83-1.54a.16.16 0 01.09.19c0 .09-1.54 1.85-2.07 1.85a.531.531 0 01-.53-.55" fill="#2EE5D8"/><path d="M84 41.3c-.1.15-1.56 1.88-2.08 1.88-.3 0-.46-.23-.49-.58A21.395 21.395 0 0183 39.3h-1.1c-.15 0-.18-.23-.11-.23l1.4-.11c.27-.47.49-.8.57-.8.37 0 .5.23.45.31-.05.08-.14.23-.25.43l1.23-.09c.19 0 .08.45 0 .45h-1.43a19.208 19.208 0 00-1.64 3.39c.42 0 1.66-1.41 1.79-1.57a.16.16 0 01.09.19" fill="#2EE5D8"/><path d="M84.67 41.21c1.07-.21 1.46-1.46 1.15-1.46-.31 0-.85.72-1.15 1.46zm-1.08.91c.27-1.71 1.32-2.68 2.16-2.68.22 0 .54.14.51.69a1.56 1.56 0 01-1.6 1.26h-.06c-.26.71-.34 1.38 0 1.38.67 0 2-1.65 2-1.65s.13.12.09.19c-.04.07-1.49 1.85-2.45 1.85-.22 0-.82-.18-.69-1m-35.11-2.79s.06.06.1 0L50 38.9a.09.09 0 00.06-.06.129.129 0 000-.08l-.22-.25a.07.07 0 00-.11 0l-1.22.74c-.053 0-.053.04 0 .12h-.07zM8.41 26.32a1.5 1.5 0 01.25-.4c.102-.116.22-.217.35-.3a1.66 1.66 0 01.43-.19 1.86 1.86 0 01.48-.06h1.59L6.8 36.08H4.68L0 25.37h1.59c.156-.001.311.022.46.07.154.05.301.117.44.2.129.089.25.19.36.3.105.111.19.24.25.38l2.45 5.6c.04.083.07.17.09.26l.06.28.06.29v-.28l.06-.27c0-.09.06-.18.1-.27l2.49-5.61zm7.01-.95h-2.47v10.71h2.47V25.37zm2.88 10.71V25.37h2.45v8.42h4.26v2.29H18.3zm8.32 0V25.37h2.46v8.42h4.26v2.29h-6.72zm11.47-4.36h2.3l-.94-2.24a1.995 1.995 0 01-.1-.29 1.398 1.398 0 01-.06-.24 2.07 2.07 0 010-.22v.23c0 .09 0 .15-.07.24s-.06.18-.1.28l-1.03 2.24zm.1-6.35h2.12L45 36.08h-1.57A2.003 2.003 0 0143 36a1.59 1.59 0 01-.42-.19 1.43 1.43 0 01-.35-.3 1.2 1.2 0 01-.26-.4l-.53-1.19h-4.33l-.51 1.19a1.561 1.561 0 01-.25.38 2.2 2.2 0 01-.37.3 1.69 1.69 0 01-.43.2c-.152.048-.31.071-.47.07h-1.59l4.7-10.69zm15.5 4.99a.87.87 0 00.44-.11 1.28 1.28 0 00.37-.25 1.59 1.59 0 00.26-.41 1.221 1.221 0 000-.92 1.594 1.594 0 00-.26-.41 1.76 1.76 0 00-.37-.29 1 1 0 00-.44-.11H51.8v2.54l1.89-.04zm-1.89 5.72h-2.46V25.37h4.22c.383-.005.764.049 1.13.16.329.095.642.236.93.42.274.171.52.384.73.63.213.232.395.49.54.77.139.274.246.562.32.86a3.775 3.775 0 01.02 1.72 4.356 4.356 0 01-.3.83 3.54 3.54 0 01-.53.77c-.227.265-.49.497-.78.69l2.87 3.86h-2.32a1.654 1.654 0 01-.37-.08 1.719 1.719 0 01-.85-.7l-1.81-2.43H51.8v3.21z" fill="#2EE5D8"/><path d="M62.84 31.72h2.3l-.93-2.24a2.119 2.119 0 01-.11-.29A1.393 1.393 0 0164 29a2.07 2.07 0 010-.22v.23c0 .09 0 .15-.07.24-.026.096-.06.19-.1.28l-.99 2.19zm.1-6.35h2.12l4.71 10.71h-1.59a1.998 1.998 0 01-.48-.08 1.59 1.59 0 01-.42-.19 1.43 1.43 0 01-.35-.3 1.38 1.38 0 01-.26-.4l-.53-1.19h-4.28l-.51 1.19a1.561 1.561 0 01-.25.38 2.2 2.2 0 01-.37.3 1.69 1.69 0 01-.43.2c-.152.048-.31.071-.47.07h-1.59l4.7-10.69zm20.38 10.71h-2.46v-7.15l-2.71 7.15H76l-2.77-7.15v7.15H70.8V25.37h2.69c.166-.002.331.021.49.07.154.045.301.11.44.19.13.084.247.185.35.3.1.115.177.247.23.39l1.89 5.36c0 .08 0 .17.07.27l.06.28v.33a3.163 3.163 0 010-.32c0-.09 0-.19.06-.29a1.74 1.74 0 01.08-.27l1.87-5.36c.05-.152.132-.292.24-.41a1.48 1.48 0 01.36-.29c.136-.085.285-.15.44-.19.157-.04.318-.06.48-.06h2.68l.09 10.71zm5.83-8.36a2.34 2.34 0 00-.38 0 1.17 1.17 0 00-.33.11.59.59 0 00-.22.19.39.39 0 00-.09.26.56.56 0 00.12.38.9.9 0 00.36.23c.2.08.403.15.61.21.25.06.53.15.86.26.393.131.772.302 1.13.51.33.187.628.427.88.71a3 3 0 01.77 2.06c.005.493-.108.98-.33 1.42a3.52 3.52 0 01-.88 1.11 4.07 4.07 0 01-1.27.72c-.481.172-.989.26-1.5.26a4.06 4.06 0 01-3.23-1.57 3.878 3.878 0 01-.59-1l.78-.45c.13-.07.267-.123.41-.16.33-.11.69-.085 1 .07.17.09.34.18.51.29.17.11.33.2.51.29.187.091.392.136.6.13.166 0 .33-.024.49-.07a1.69 1.69 0 00.5-.2 1.25 1.25 0 00.38-.34.72.72 0 00.15-.45.62.62 0 00-.14-.41 1.281 1.281 0 00-.38-.27 3.005 3.005 0 00-.54-.21l-.65-.24c-.37-.14-.73-.29-1.09-.45a4.096 4.096 0 01-1-.61 2.87 2.87 0 01-.7-.88 2.798 2.798 0 01-.27-1.29A2.67 2.67 0 0186 27c.189-.386.458-.727.79-1a3.68 3.68 0 011.11-.59 4.05 4.05 0 011.29-.21c.32.002.639.06.94.17.302.102.59.24.86.41a6.28 6.28 0 011.4 1.26l-.76.64a1.54 1.54 0 01-.47.28c-.178.053-.364.08-.55.08a1.329 1.329 0 01-.42-.06l-.34-.13-.31-.13a1.002 1.002 0 00-.35-.06m8.57 4.06h2.31l-.94-2.24a2.132 2.132 0 01-.11-.29c0-.09 0-.17-.06-.24a2.07 2.07 0 010-.22v.23c0 .09 0 .15-.07.24-.026.096-.06.19-.1.28l-1.03 2.24zm.1-6.35H100l4.71 10.71h-1.61c-.162 0-.323-.02-.48-.06a1.597 1.597 0 01-.42-.19 1.437 1.437 0 01-.35-.3 1.389 1.389 0 01-.26-.4l-.53-1.19h-4.28l-.51 1.19a1.559 1.559 0 01-.25.38 2.196 2.196 0 01-.37.3 1.69 1.69 0 01-.43.2c-.152.048-.31.071-.47.07h-1.59l4.7-10.71z" fill="#2EE5D8"/></svg>